<?xml version="1.0"?>
<svg width="520" height="715" xmlns="http://www.w3.org/2000/svg">
 <metadata id="metadata7">image/svg+xml</metadata>
 <g>
  <title>Layer 1</title>
  <g id="layer1">
   <g id="g4037">
    <path id="path3194" d="m510.980835,625.541016c0,0 -30.414429,-68.287781 -33.128296,-81.283875c-4.518555,-21.638306 13.567261,-62.808899 6.508728,-141.421936c-2.822144,-31.431641 -15.204163,-95.902893 -39.099609,-113.241882c-23.895447,-17.33902 -44.512939,-20.040558 -53.202209,-30.877472c-8.68927,-10.836838 -9.460815,-18.750488 -25.530304,-28.720306c-16.069519,-9.969788 -21.708771,-3.237778 -41.261658,-5.951569c-17.34671,-2.407639 -23.372375,-28.730576 -45.09552,-35.232712c-21.723175,-6.502136 -57.015564,4.870972 -57.015564,4.870972c-17.965485,-29.440948 -38.055908,-60.815948 -52.477127,-89.986069c-39.191422,-33.896545 -60.239143,-45.189796 -82.717117,-66.580868c-39.671917,-20.60137 -65.873228,-37.729419 -76.621778,-31.990849c-14.26689,7.61697 -6.149899,34.821091 10.87389,50.387951c19.55493,17.881367 22.955381,25.237598 44.53142,54.1824c15.745682,21.123253 39.641129,33.597435 39.641129,33.597435c0,0 14.131363,49.831238 24.441154,85.070099c6.940277,23.721909 2.172302,13.004272 8.68924,58.519196c3.258484,22.757477 5.162048,30.338165 2.989502,39.822479c-2.172607,9.484314 -8.42131,20.872284 -8.42131,20.872284c0,0 -7.778244,-13.255768 -14.664673,-28.726471c-3.251297,-21.681915 -12.49852,-44.450684 -22.812408,-55.813568c-21.529984,-23.719711 -35.848312,-25.994171 -55.395023,-17.326721c-23.985989,10.635925 -23.893419,16.276886 -15.19595,52.037567c8.69746,35.760651 -0.04842,34.123718 15.75185,70.432617c17.209492,39.547211 19.999512,35.076813 26.065723,55.250732c6.066216,20.17395 13.908447,51.807098 32.043167,69.354034c18.325729,17.73172 48.963387,36.207825 62.993004,44.428162c28.767242,16.855408 66.609451,28.194336 98.865967,38.486816c30.874542,58.985901 64.053497,133.278381 64.053497,133.278381" stroke-miterlimit="4" stroke-width="4" stroke="#000000" fill="#efd7b0"/>
    <path id="path3964" d="m26.97031,293.91861c9.760929,1.826019 7.32069,-8.521423 17.69165,-15.216766c10.370991,-6.695374 22.572132,-4.260681 24.402302,-9.130066c1.83017,-4.869354 -7.320683,-29.216232 -7.320683,-29.216232" stroke-miterlimit="4" stroke-width="4" stroke="#000000" fill="none"/>
    <path id="path3968" d="m81.875473,314.613434c-28.062645,9.738708 -32.943104,20.694763 -37.213505,31.650879" stroke-miterlimit="4" stroke-width="4" stroke="#000000" fill="none"/>
    <path id="path3968-1" d="m84.859802,320.209259c-28.062622,9.738708 -32.943104,20.694794 -37.213493,31.65094" stroke-miterlimit="4" stroke-width="4" stroke="#000000" fill="none"/>
    <path id="path3990" d="m75.164833,30.97274c-21.962074,3.65205 -21.352013,7.912731 -25.012344,11.564758" stroke-miterlimit="4" stroke-width="4" stroke="#000000" fill="none"/>
    <path id="path3990-1" d="m81.57045,34.320431c-21.962078,3.652031 -21.35202,7.912731 -25.01236,11.564758" stroke-miterlimit="4" stroke-width="4" stroke="#000000" fill="none"/>
    <path id="path3990-9" d="m158.922791,93.408478c-17.571411,0.820305 -28.579376,9.104858 -34.211853,11.783295" stroke-miterlimit="4" stroke-width="4" stroke="#000000" fill="none"/>
    <path id="path3990-9-7" d="m163.928192,97.622208c-19.005005,2.37117 -31.938385,7.107414 -32.897644,10.909134" stroke-miterlimit="4" stroke-width="4" stroke="#000000" fill="none"/>
    <path id="path4035" d="m40.675919,12.14378c-9.088638,0.23863 -13.165848,7.291821 -19.612339,6.681681c-5.042509,-0.477261 -11.71956,-1.90905 -16.742219,-6.681681" stroke-miterlimit="4" stroke-width="4" stroke="#000000" fill="none"/>
   </g>
  </g>
 </g>
</svg>